<svg viewBox="0 0 114 77" fill="none" xmlns="http://www.w3.org/2000/svg">
<path d="M8.16992 50.0645H4.17969L3.35352 53H2.17578L5.86719 40.3965H6.46484L10.1738 53H9.00488L8.16992 50.0645ZM4.4873 48.9834H7.87109L6.20996 43.1738L6.1748 42.708L6.13965 43.1738L4.4873 48.9834ZM17.8048 53L14.3859 47.6211H12.8302V53H11.6964V40.3965H15.6955C16.1232 40.3965 16.5246 40.4785 16.8996 40.6426C17.2746 40.8008 17.6027 41.0205 17.8839 41.3018C18.1652 41.583 18.3849 41.9141 18.5431 42.2949C18.7072 42.6699 18.7892 43.0713 18.7892 43.499V44.5186C18.7892 44.9463 18.7072 45.3506 18.5431 45.7314C18.3849 46.1064 18.1652 46.4346 17.8839 46.7158C17.6027 46.9971 17.2746 47.2197 16.8996 47.3838C16.5246 47.542 16.1232 47.6211 15.6955 47.6211L19.1144 53H17.8048ZM17.6554 43.499C17.6554 43.2178 17.6027 42.957 17.4972 42.7168C17.3918 42.4707 17.2482 42.2568 17.0666 42.0752C16.8849 41.8877 16.6711 41.7412 16.425 41.6357C16.1847 41.5303 15.924 41.4775 15.6427 41.4775H12.8302V46.54H15.6427C15.924 46.54 16.1847 46.4873 16.425 46.3818C16.6711 46.2764 16.8849 46.1328 17.0666 45.9512C17.2482 45.7637 17.3918 45.5498 17.4972 45.3096C17.6027 45.0635 17.6554 44.7998 17.6554 44.5186V43.499ZM28.2835 50.082C28.2835 50.5098 28.2015 50.9111 28.0374 51.2861C27.8792 51.6611 27.6595 51.9893 27.3782 52.2705C27.097 52.5518 26.7689 52.7744 26.3939 52.9385C26.0189 53.0967 25.6175 53.1758 25.1898 53.1758H24.2933C23.8655 53.1758 23.4613 53.0967 23.0804 52.9385C22.7054 52.7744 22.3773 52.5518 22.096 52.2705C21.8148 51.9893 21.5921 51.6611 21.428 51.2861C21.2698 50.9111 21.1907 50.5098 21.1907 50.082V43.3145C21.1907 42.8867 21.2698 42.4854 21.428 42.1104C21.5921 41.7354 21.8148 41.4072 22.096 41.126C22.3773 40.8447 22.7054 40.625 23.0804 40.4668C23.4613 40.3027 23.8655 40.2207 24.2933 40.2207H25.1898C25.6175 40.2207 26.0189 40.3027 26.3939 40.4668C26.7689 40.625 27.097 40.8447 27.3782 41.126C27.6595 41.4072 27.8792 41.7354 28.0374 42.1104C28.2015 42.4854 28.2835 42.8867 28.2835 43.3145V43.8242L27.1497 44V43.3145C27.1497 43.0332 27.097 42.7725 26.9915 42.5322C26.8861 42.2861 26.7425 42.0723 26.5609 41.8906C26.3792 41.709 26.1654 41.5654 25.9193 41.46C25.679 41.3545 25.4183 41.3018 25.137 41.3018H24.346C24.0648 41.3018 23.8011 41.3545 23.555 41.46C23.3148 41.5654 23.1009 41.709 22.9134 41.8906C22.7318 42.0723 22.5882 42.2861 22.4827 42.5322C22.3773 42.7725 22.3245 43.0332 22.3245 43.3145V50.082C22.3245 50.3633 22.3773 50.627 22.4827 50.873C22.5882 51.1133 22.7318 51.3271 22.9134 51.5146C23.1009 51.6963 23.3148 51.8398 23.555 51.9453C23.8011 52.0508 24.0648 52.1035 24.346 52.1035H25.137C25.4183 52.1035 25.679 52.0508 25.9193 51.9453C26.1654 51.8398 26.3792 51.6963 26.5609 51.5146C26.7425 51.3271 26.8861 51.1133 26.9915 50.873C27.097 50.627 27.1497 50.3633 27.1497 50.082V49.3965L28.2835 49.5811V50.082ZM36.8638 53V47.2432H32.0386V53H30.9048V40.3965H32.0386V46.1621H36.8638V40.3965H37.9975V53H36.8638ZM40.9791 53V40.3965H42.1129V53H40.9791ZM48.1531 41.4775V53H47.0193V41.4775H44.0135V40.3965H51.159V41.4775H48.1531ZM53.0595 53V40.3965H60.1523V41.4775H54.1933V46.1621H59.0185V47.2432H54.1933V51.9189H60.1523V53H53.0595ZM69.3214 50.082C69.3214 50.5098 69.2394 50.9111 69.0753 51.2861C68.9171 51.6611 68.6974 51.9893 68.4161 52.2705C68.1349 52.5518 67.8068 52.7744 67.4318 52.9385C67.0568 53.0967 66.6554 53.1758 66.2277 53.1758H65.3312C64.9034 53.1758 64.4991 53.0967 64.1183 52.9385C63.7433 52.7744 63.4152 52.5518 63.1339 52.2705C62.8527 51.9893 62.63 51.6611 62.4659 51.2861C62.3077 50.9111 62.2286 50.5098 62.2286 50.082V43.3145C62.2286 42.8867 62.3077 42.4854 62.4659 42.1104C62.63 41.7354 62.8527 41.4072 63.1339 41.126C63.4152 40.8447 63.7433 40.625 64.1183 40.4668C64.4991 40.3027 64.9034 40.2207 65.3312 40.2207H66.2277C66.6554 40.2207 67.0568 40.3027 67.4318 40.4668C67.8068 40.625 68.1349 40.8447 68.4161 41.126C68.6974 41.4072 68.9171 41.7354 69.0753 42.1104C69.2394 42.4854 69.3214 42.8867 69.3214 43.3145V43.8242L68.1876 44V43.3145C68.1876 43.0332 68.1349 42.7725 68.0294 42.5322C67.9239 42.2861 67.7804 42.0723 67.5988 41.8906C67.4171 41.709 67.2032 41.5654 66.9571 41.46C66.7169 41.3545 66.4562 41.3018 66.1749 41.3018H65.3839C65.1027 41.3018 64.839 41.3545 64.5929 41.46C64.3527 41.5654 64.1388 41.709 63.9513 41.8906C63.7696 42.0723 63.6261 42.2861 63.5206 42.5322C63.4152 42.7725 63.3624 43.0332 63.3624 43.3145V50.082C63.3624 50.3633 63.4152 50.627 63.5206 50.873C63.6261 51.1133 63.7696 51.3271 63.9513 51.5146C64.1388 51.6963 64.3527 51.8398 64.5929 51.9453C64.839 52.0508 65.1027 52.1035 65.3839 52.1035H66.1749C66.4562 52.1035 66.7169 52.0508 66.9571 51.9453C67.2032 51.8398 67.4171 51.6963 67.5988 51.5146C67.7804 51.3271 67.9239 51.1133 68.0294 50.873C68.1349 50.627 68.1876 50.3633 68.1876 50.082V49.3965L69.3214 49.5811V50.082ZM75.0013 41.4775V53H73.8675V41.4775H70.8616V40.3965H78.0071V41.4775H75.0013ZM86.8159 50.082C86.8159 50.5098 86.7338 50.9111 86.5698 51.2861C86.4116 51.6611 86.1918 51.9893 85.9106 52.2705C85.6293 52.5518 85.3012 52.7744 84.9262 52.9385C84.5512 53.0967 84.1498 53.1758 83.7221 53.1758H82.8256C82.3979 53.1758 81.9936 53.0967 81.6127 52.9385C81.2377 52.7744 80.9096 52.5518 80.6284 52.2705C80.3471 51.9893 80.1245 51.6611 79.9604 51.2861C79.8022 50.9111 79.7231 50.5098 79.7231 50.082V40.3965H80.8569V50.082C80.8569 50.3633 80.9096 50.627 81.0151 50.873C81.1205 51.1133 81.2641 51.3271 81.4457 51.5146C81.6332 51.6963 81.8471 51.8398 82.0873 51.9453C82.3334 52.0508 82.5971 52.1035 82.8784 52.1035H83.6694C83.9506 52.1035 84.2114 52.0508 84.4516 51.9453C84.6977 51.8398 84.9116 51.6963 85.0932 51.5146C85.2748 51.3271 85.4184 51.1133 85.5239 50.873C85.6293 50.627 85.6821 50.3633 85.6821 50.082V40.3965H86.8159V50.082ZM95.5367 53L92.1178 47.6211H90.5621V53H89.4283V40.3965H93.4273C93.8551 40.3965 94.2564 40.4785 94.6314 40.6426C95.0064 40.8008 95.3346 41.0205 95.6158 41.3018C95.8971 41.583 96.1168 41.9141 96.275 42.2949C96.4391 42.6699 96.5211 43.0713 96.5211 43.499V44.5186C96.5211 44.9463 96.4391 45.3506 96.275 45.7314C96.1168 46.1064 95.8971 46.4346 95.6158 46.7158C95.3346 46.9971 95.0064 47.2197 94.6314 47.3838C94.2564 47.542 93.8551 47.6211 93.4273 47.6211L96.8463 53H95.5367ZM95.3873 43.499C95.3873 43.2178 95.3346 42.957 95.2291 42.7168C95.1236 42.4707 94.9801 42.2568 94.7984 42.0752C94.6168 41.8877 94.4029 41.7412 94.1568 41.6357C93.9166 41.5303 93.6559 41.4775 93.3746 41.4775H90.5621V46.54H93.3746C93.6559 46.54 93.9166 46.4873 94.1568 46.3818C94.4029 46.2764 94.6168 46.1328 94.7984 45.9512C94.9801 45.7637 95.1236 45.5498 95.2291 45.3096C95.3346 45.0635 95.3873 44.7998 95.3873 44.5186V43.499ZM99.1072 53V40.3965H106.2V41.4775H100.241V46.1621H105.066V47.2432H100.241V51.9189H106.2V53H99.1072Z" fill="black"/>
<path d="M9.53418 68.9062C9.53418 69.334 9.45215 69.7354 9.28809 70.1104C9.12988 70.4854 8.91016 70.8135 8.62891 71.0947C8.34766 71.376 8.0166 71.5986 7.63574 71.7627C7.26074 71.9209 6.85938 72 6.43164 72H2.44141V59.3965H6.43164C6.85938 59.3965 7.26074 59.4785 7.63574 59.6426C8.0166 59.8008 8.34766 60.0205 8.62891 60.3018C8.91016 60.583 9.12988 60.9141 9.28809 61.2949C9.45215 61.6699 9.53418 62.0713 9.53418 62.499V68.9062ZM8.40039 62.499C8.40039 62.2178 8.34766 61.957 8.24219 61.7168C8.13672 61.4707 7.99023 61.2568 7.80273 61.0752C7.62109 60.8877 7.40723 60.7412 7.16113 60.6357C6.9209 60.5303 6.66016 60.4775 6.37891 60.4775H3.5752V70.9189H6.37891C6.66016 70.9189 6.9209 70.8662 7.16113 70.7607C7.40723 70.6553 7.62109 70.5117 7.80273 70.3301C7.99023 70.1484 8.13672 69.9375 8.24219 69.6973C8.34766 69.4512 8.40039 69.1875 8.40039 68.9062V62.499ZM12.2324 72V59.3965H19.3252V60.4775H13.3662V65.1621H18.1914V66.2432H13.3662V70.9189H19.3252V72H12.2324ZM28.4043 69.082C28.4043 69.5098 28.3164 69.9111 28.1406 70.2861C27.9707 70.6611 27.7393 70.9893 27.4463 71.2705C27.1592 71.5518 26.8223 71.7744 26.4355 71.9385C26.0547 72.0967 25.6504 72.1758 25.2227 72.1758H24.3174C23.8896 72.1758 23.4824 72.0967 23.0957 71.9385C22.7148 71.7744 22.3779 71.5518 22.085 71.2705C21.7979 70.9893 21.5664 70.6611 21.3906 70.2861C21.2207 69.9111 21.1357 69.5098 21.1357 69.082V68.5811L22.2695 68.3965V69.082C22.2695 69.3633 22.3252 69.627 22.4365 69.873C22.5537 70.1133 22.709 70.3271 22.9023 70.5146C23.0957 70.6963 23.3184 70.8398 23.5703 70.9453C23.8281 71.0508 24.0977 71.1035 24.3789 71.1035H25.1699C25.4512 71.1035 25.7178 71.0508 25.9697 70.9453C26.2217 70.8398 26.4443 70.6963 26.6377 70.5146C26.8311 70.3271 26.9834 70.1133 27.0947 69.873C27.2119 69.627 27.2705 69.3633 27.2705 69.082V68.7041C27.2705 68.2705 27.1855 67.9102 27.0156 67.623C26.8457 67.3359 26.6201 67.0928 26.3389 66.8936C26.0576 66.6885 25.7383 66.5156 25.3809 66.375C25.0293 66.2344 24.666 66.0938 24.291 65.9531C23.916 65.8125 23.5498 65.6572 23.1924 65.4873C22.8408 65.3174 22.5244 65.1064 22.2432 64.8545C21.9619 64.5967 21.7363 64.2832 21.5664 63.9141C21.3965 63.5449 21.3115 63.0908 21.3115 62.5518V62.3145C21.3115 61.8867 21.3906 61.4854 21.5488 61.1104C21.7129 60.7354 21.9355 60.4072 22.2168 60.126C22.498 59.8447 22.8262 59.625 23.2012 59.4668C23.582 59.3027 23.9863 59.2207 24.4141 59.2207H25.2227C25.6504 59.2207 26.0518 59.3027 26.4268 59.4668C26.8018 59.625 27.1299 59.8447 27.4111 60.126C27.6924 60.4072 27.9121 60.7354 28.0703 61.1104C28.2344 61.4854 28.3164 61.8867 28.3164 62.3145V62.6396L27.1826 62.8242V62.3145C27.1826 62.0332 27.1299 61.7725 27.0244 61.5322C26.9189 61.2861 26.7754 61.0723 26.5938 60.8906C26.4121 60.709 26.1982 60.5654 25.9521 60.46C25.7119 60.3545 25.4512 60.3018 25.1699 60.3018H24.4668C24.1855 60.3018 23.9219 60.3545 23.6758 60.46C23.4355 60.5654 23.2217 60.709 23.0342 60.8906C22.8525 61.0723 22.709 61.2861 22.6035 61.5322C22.498 61.7725 22.4453 62.0332 22.4453 62.3145V62.5518C22.4453 62.9561 22.5303 63.2959 22.7002 63.5713C22.8701 63.8467 23.0957 64.084 23.377 64.2832C23.6582 64.4766 23.9746 64.6465 24.3262 64.793C24.6836 64.9336 25.0498 65.0801 25.4248 65.2324C25.7998 65.3789 26.1631 65.543 26.5146 65.7246C26.8721 65.9004 27.1914 66.1201 27.4727 66.3838C27.7539 66.6416 27.9795 66.958 28.1494 67.333C28.3193 67.708 28.4043 68.165 28.4043 68.7041V69.082ZM30.8477 72V59.3965H31.9814V72H30.8477ZM41.7812 72H41.4209L40.7617 70.9893C40.4863 71.3525 40.1523 71.6426 39.7598 71.8594C39.3672 72.0703 38.9307 72.1758 38.4502 72.1758H37.791C37.3633 72.1758 36.959 72.0967 36.5781 71.9385C36.2031 71.7744 35.875 71.5518 35.5938 71.2705C35.3125 70.9893 35.0898 70.6611 34.9258 70.2861C34.7676 69.9111 34.6885 69.5098 34.6885 69.082V62.3145C34.6885 61.8867 34.7676 61.4854 34.9258 61.1104C35.0898 60.7354 35.3125 60.4072 35.5938 60.126C35.875 59.8447 36.2031 59.625 36.5781 59.4668C36.959 59.3027 37.3633 59.2207 37.791 59.2207H38.6875C39.1152 59.2207 39.5166 59.3027 39.8916 59.4668C40.2666 59.625 40.5947 59.8447 40.876 60.126C41.1572 60.4072 41.377 60.7354 41.5352 61.1104C41.6992 61.4854 41.7812 61.8867 41.7812 62.3145V62.8242L40.6475 63V62.3145C40.6475 62.0332 40.5947 61.7725 40.4893 61.5322C40.3838 61.2861 40.2402 61.0723 40.0586 60.8906C39.877 60.709 39.6631 60.5654 39.417 60.46C39.1768 60.3545 38.916 60.3018 38.6348 60.3018H37.8438C37.5625 60.3018 37.2988 60.3545 37.0527 60.46C36.8125 60.5654 36.5986 60.709 36.4111 60.8906C36.2295 61.0723 36.0859 61.2861 35.9805 61.5322C35.875 61.7725 35.8223 62.0332 35.8223 62.3145V69.082C35.8223 69.3633 35.875 69.627 35.9805 69.873C36.0859 70.1133 36.2295 70.3271 36.4111 70.5146C36.5986 70.6963 36.8125 70.8398 37.0527 70.9453C37.2988 71.0508 37.5625 71.1035 37.8438 71.1035H38.6348C38.916 71.1035 39.1768 71.0508 39.417 70.9453C39.6631 70.8398 39.877 70.6963 40.0586 70.5146C40.2402 70.3271 40.3838 70.1133 40.4893 69.873C40.5947 69.627 40.6475 69.3633 40.6475 69.082V66.4541H38.6348V65.373H41.7812V72ZM50.9834 72L45.7275 62.8242L45.6221 62.2793V72H44.4883V59.3965H45.0771L50.333 68.5811L50.4473 69.1172V59.3965H51.5811V72H50.9834ZM65.5293 69.082C65.5293 69.5098 65.4414 69.9111 65.2656 70.2861C65.0957 70.6611 64.8643 70.9893 64.5713 71.2705C64.2842 71.5518 63.9473 71.7744 63.5605 71.9385C63.1797 72.0967 62.7754 72.1758 62.3477 72.1758H61.4424C61.0146 72.1758 60.6074 72.0967 60.2207 71.9385C59.8398 71.7744 59.5029 71.5518 59.21 71.2705C58.9229 70.9893 58.6914 70.6611 58.5156 70.2861C58.3457 69.9111 58.2607 69.5098 58.2607 69.082V68.5811L59.3945 68.3965V69.082C59.3945 69.3633 59.4502 69.627 59.5615 69.873C59.6787 70.1133 59.834 70.3271 60.0273 70.5146C60.2207 70.6963 60.4434 70.8398 60.6953 70.9453C60.9531 71.0508 61.2227 71.1035 61.5039 71.1035H62.2949C62.5762 71.1035 62.8428 71.0508 63.0947 70.9453C63.3467 70.8398 63.5693 70.6963 63.7627 70.5146C63.9561 70.3271 64.1084 70.1133 64.2197 69.873C64.3369 69.627 64.3955 69.3633 64.3955 69.082V68.7041C64.3955 68.2705 64.3105 67.9102 64.1406 67.623C63.9707 67.3359 63.7451 67.0928 63.4639 66.8936C63.1826 66.6885 62.8633 66.5156 62.5059 66.375C62.1543 66.2344 61.791 66.0938 61.416 65.9531C61.041 65.8125 60.6748 65.6572 60.3174 65.4873C59.9658 65.3174 59.6494 65.1064 59.3682 64.8545C59.0869 64.5967 58.8613 64.2832 58.6914 63.9141C58.5215 63.5449 58.4365 63.0908 58.4365 62.5518V62.3145C58.4365 61.8867 58.5156 61.4854 58.6738 61.1104C58.8379 60.7354 59.0605 60.4072 59.3418 60.126C59.623 59.8447 59.9512 59.625 60.3262 59.4668C60.707 59.3027 61.1113 59.2207 61.5391 59.2207H62.3477C62.7754 59.2207 63.1768 59.3027 63.5518 59.4668C63.9268 59.625 64.2549 59.8447 64.5361 60.126C64.8174 60.4072 65.0371 60.7354 65.1953 61.1104C65.3594 61.4854 65.4414 61.8867 65.4414 62.3145V62.6396L64.3076 62.8242V62.3145C64.3076 62.0332 64.2549 61.7725 64.1494 61.5322C64.0439 61.2861 63.9004 61.0723 63.7188 60.8906C63.5371 60.709 63.3232 60.5654 63.0771 60.46C62.8369 60.3545 62.5762 60.3018 62.2949 60.3018H61.5918C61.3105 60.3018 61.0469 60.3545 60.8008 60.46C60.5605 60.5654 60.3467 60.709 60.1592 60.8906C59.9775 61.0723 59.834 61.2861 59.7285 61.5322C59.623 61.7725 59.5703 62.0332 59.5703 62.3145V62.5518C59.5703 62.9561 59.6553 63.2959 59.8252 63.5713C59.9951 63.8467 60.2207 64.084 60.502 64.2832C60.7832 64.4766 61.0996 64.6465 61.4512 64.793C61.8086 64.9336 62.1748 65.0801 62.5498 65.2324C62.9248 65.3789 63.2881 65.543 63.6396 65.7246C63.9971 65.9004 64.3164 66.1201 64.5977 66.3838C64.8789 66.6416 65.1045 66.958 65.2744 67.333C65.4443 67.708 65.5293 68.165 65.5293 68.7041V69.082ZM71.0312 60.4775V72H69.8975V60.4775H66.8916V59.3965H74.0371V60.4775H71.0312ZM82.7559 69.082C82.7559 69.5098 82.6738 69.9111 82.5098 70.2861C82.3516 70.6611 82.1318 70.9893 81.8506 71.2705C81.5693 71.5518 81.2412 71.7744 80.8662 71.9385C80.4912 72.0967 80.0898 72.1758 79.6621 72.1758H78.7656C78.3379 72.1758 77.9336 72.0967 77.5527 71.9385C77.1777 71.7744 76.8496 71.5518 76.5684 71.2705C76.2871 70.9893 76.0645 70.6611 75.9004 70.2861C75.7422 69.9111 75.6631 69.5098 75.6631 69.082V59.3965H76.7969V69.082C76.7969 69.3633 76.8496 69.627 76.9551 69.873C77.0605 70.1133 77.2041 70.3271 77.3857 70.5146C77.5732 70.6963 77.7871 70.8398 78.0273 70.9453C78.2734 71.0508 78.5371 71.1035 78.8184 71.1035H79.6094C79.8906 71.1035 80.1514 71.0508 80.3916 70.9453C80.6377 70.8398 80.8516 70.6963 81.0332 70.5146C81.2148 70.3271 81.3584 70.1133 81.4639 69.873C81.5693 69.627 81.6221 69.3633 81.6221 69.082V59.3965H82.7559V69.082ZM92.5557 68.9062C92.5557 69.334 92.4736 69.7354 92.3096 70.1104C92.1514 70.4854 91.9316 70.8135 91.6504 71.0947C91.3691 71.376 91.0381 71.5986 90.6572 71.7627C90.2822 71.9209 89.8809 72 89.4531 72H85.4629V59.3965H89.4531C89.8809 59.3965 90.2822 59.4785 90.6572 59.6426C91.0381 59.8008 91.3691 60.0205 91.6504 60.3018C91.9316 60.583 92.1514 60.9141 92.3096 61.2949C92.4736 61.6699 92.5557 62.0713 92.5557 62.499V68.9062ZM91.4219 62.499C91.4219 62.2178 91.3691 61.957 91.2637 61.7168C91.1582 61.4707 91.0117 61.2568 90.8242 61.0752C90.6426 60.8877 90.4287 60.7412 90.1826 60.6357C89.9424 60.5303 89.6816 60.4775 89.4004 60.4775H86.5967V70.9189H89.4004C89.6816 70.9189 89.9424 70.8662 90.1826 70.7607C90.4287 70.6553 90.6426 70.5117 90.8242 70.3301C91.0117 70.1484 91.1582 69.9375 91.2637 69.6973C91.3691 69.4512 91.4219 69.1875 91.4219 68.9062V62.499ZM95.2539 72V59.3965H96.3877V72H95.2539ZM106.188 69.082C106.188 69.5098 106.105 69.9111 105.941 70.2861C105.783 70.6611 105.563 70.9893 105.282 71.2705C105.001 71.5518 104.673 71.7744 104.298 71.9385C103.923 72.0967 103.521 72.1758 103.094 72.1758H102.197C101.77 72.1758 101.365 72.0967 100.984 71.9385C100.609 71.7744 100.281 71.5518 100 71.2705C99.7188 70.9893 99.4961 70.6611 99.332 70.2861C99.1738 69.9111 99.0947 69.5098 99.0947 69.082V62.3145C99.0947 61.8867 99.1738 61.4854 99.332 61.1104C99.4961 60.7354 99.7188 60.4072 100 60.126C100.281 59.8447 100.609 59.625 100.984 59.4668C101.365 59.3027 101.77 59.2207 102.197 59.2207H103.094C103.521 59.2207 103.923 59.3027 104.298 59.4668C104.673 59.625 105.001 59.8447 105.282 60.126C105.563 60.4072 105.783 60.7354 105.941 61.1104C106.105 61.4854 106.188 61.8867 106.188 62.3145V69.082ZM105.054 62.3145C105.054 62.0332 105.001 61.7725 104.896 61.5322C104.79 61.2861 104.646 61.0723 104.465 60.8906C104.283 60.709 104.069 60.5654 103.823 60.46C103.583 60.3545 103.322 60.3018 103.041 60.3018H102.25C101.969 60.3018 101.705 60.3545 101.459 60.46C101.219 60.5654 101.005 60.709 100.817 60.8906C100.636 61.0723 100.492 61.2861 100.387 61.5322C100.281 61.7725 100.229 62.0332 100.229 62.3145V69.082C100.229 69.3633 100.281 69.627 100.387 69.873C100.492 70.1133 100.636 70.3271 100.817 70.5146C101.005 70.6963 101.219 70.8398 101.459 70.9453C101.705 71.0508 101.969 71.1035 102.25 71.1035H103.041C103.322 71.1035 103.583 71.0508 103.823 70.9453C104.069 70.8398 104.283 70.6963 104.465 70.5146C104.646 70.3271 104.79 70.1133 104.896 69.873C105.001 69.627 105.054 69.3633 105.054 69.082V62.3145Z" fill="black"/>
<path d="M1.93359 34V8.21875H5.85938V20.084L9.78516 8.21875H13.8428L9.56543 20.9336L14.1797 34H10.0342L5.88867 21.959V34H1.93359ZM21.0926 34V8.21875H29.7352V11.6025H25.0184V19.1025H29.5008V22.4131H25.0184V30.6162H29.9109V34H21.0926ZM37.9957 34V8.21875H46.6383V11.6025H41.9215V19.1025H46.4039V22.4131H41.9215V30.6162H46.8141V34H37.9957ZM54.8988 34V8.21875H57.975L63.4389 23.6875L63.1605 16.6562V8.21875H66.6908V34H63.9076L58.2973 17.9893L58.517 24.7568V34H54.8988ZM82.4367 26.251L80.7082 13.3018H80.6496L79.0676 26.251H82.4367ZM74.3508 34L78.0275 8.21875H83.2131L87.1242 34H83.4621L82.8469 29.4004H78.6867L78.1301 34H74.3508ZM94.7695 34V8.21875H97.8457L103.31 23.6875L103.031 16.6562V8.21875H106.562V34H103.778L98.168 17.9893L98.3877 24.7568V34H94.7695Z" fill="black"/>
</svg>
